<?xml version="1.0" encoding="utf-8" ?><svg xmlns="http://www.w3.org/2000/svg" xmlns:xlink="http://www.w3.org/1999/xlink" width="1024" height="1024" viewBox="0 0 1024 1024"><path fill="white" d="M0 0L1024 0L1024 1024L0 1024L0 0Z"/><path fill="#1A1A1A" d="M421.246 722.856C435.041 719.572 450.113 718.731 464.896 716.327C518.388 707.616 587.545 706.56 626.42 663.168C641.303 646.556 644.183 617.938 622.125 606.445C591.739 590.613 551.777 584.594 518.259 578.837C424.396 562.717 312.762 542.27 282.66 436.164C274.037 405.892 275.34 365.574 291.193 337.197C287.339 349.964 283.976 355.065 283.108 369.628C281.271 400.463 291.339 427.861 311.851 450.808C351.155 494.778 424.312 506.964 480.641 510.177C480.99 509.844 481.099 509.538 481.353 509.093C487.438 509.405 533.247 512.022 535.395 512.848L534.763 514C595.119 517.93 667.478 538.039 708.774 584.788C751.488 633.142 750.993 707.139 699.922 749.277C644.636 795.069 570.903 792.493 503.432 792.348L408.681 792.286C358.178 793.063 316.592 796.623 267.644 808.942C250.325 814.091 236.936 818.354 220.673 826.754C215.847 829.247 202.856 837.391 199.034 838.873C197.321 840.355 195.465 841.8 193.695 843.225C207.149 825.225 222.593 800.541 235.098 781.637L308.806 670.079C330.759 669.537 355.087 670.105 377.135 670.244L487.076 670.635C518.166 670.679 560.454 671.848 590.534 666.001C581.062 673.978 571.465 679.026 560.432 684.405C516.719 705.713 468.244 712.22 421.027 721.608L421.246 722.856Z"/><defs><linearGradient id="gradient_0" gradientUnits="userSpaceOnUse" x1="343.84964" y1="786.75702" x2="266.47308" y2="769.70392"><stop offset="0" stop-color="#404040"/><stop offset="1" stop-color="#727171"/></linearGradient></defs><path fill="url(#gradient_0)" d="M259.348 791.248C266.299 786.261 275.566 781.036 283.031 776.869C313.709 759.902 346.146 746.333 379.767 736.403C383.112 735.383 398.403 730.784 401.451 730.416L401.563 730.856C394.441 733.114 351.205 744.628 349.028 748.323C349.062 752.651 349.534 756.637 349.038 760.953C347.721 772.414 345.805 783.074 341.247 793.733L338.754 795.293C342.18 795.582 349.934 793.642 353.949 793.808C365.835 794.299 398.487 788.866 408.681 792.286C358.178 793.063 316.592 796.623 267.644 808.942C265.883 809.001 264.325 809.531 262.707 809.215C262.92 805.876 263.598 793.246 262.058 790.873C261.139 791.023 260.272 791.133 259.348 791.248Z"/><defs><linearGradient id="gradient_1" gradientUnits="userSpaceOnUse" x1="259.93518" y1="818.42419" x2="210.73752" y2="807.04126"><stop offset="0" stop-color="#747374"/><stop offset="1" stop-color="#959494"/></linearGradient></defs><path fill="url(#gradient_1)" d="M259.348 791.248C260.272 791.133 261.139 791.023 262.058 790.873C263.598 793.246 262.92 805.876 262.707 809.215C264.325 809.531 265.883 809.001 267.644 808.942C250.325 814.091 236.936 818.354 220.673 826.754C215.847 829.247 202.856 837.391 199.034 838.873C204.227 830.179 248.228 797.864 259.348 791.248Z"/><path fill="#CACBCD" d="M481.353 509.093C487.438 509.405 533.247 512.022 535.395 512.848L534.763 514C522.304 512.992 509.835 512.121 497.358 511.385C493.91 511.167 483.469 510.774 480.641 510.177C480.99 509.844 481.099 509.538 481.353 509.093Z"/><path fill="#969799" d="M421.246 722.856C417.31 723.555 411.947 724.54 407.996 724.499C411.417 723.09 417.32 722.146 421.027 721.608L421.246 722.856Z"/><path fill="#1A1A1A" d="M822.577 189.759C825.737 187.198 828.165 184.933 831.124 182.125L720.012 355.701C700.454 356.571 675.643 355.886 655.702 355.884L537.114 355.895C512.965 355.864 472.537 354.944 449.446 358.704C494.967 328.434 553.136 316.765 606.281 306.323L605.302 305.259L604.742 305.396C595.515 307.582 584.031 308.962 574.54 310.204C547.537 313.737 521.153 317.442 494.44 322.872C470.529 327.732 451.741 333.119 430.908 346.711C407.513 361.974 386.161 399.306 417.458 418.653C434.395 428.579 456.65 432.757 475.731 436.918C481.292 438.13 487.587 438.812 493.017 440.164C513.163 442.628 533.565 446.563 553.764 449.133C570.553 451.269 587.452 454.082 604.107 457.046C606.492 457.471 615.786 459.118 617.438 459.834L616.694 460.26L615.569 460.222C611.677 467.048 609.762 473.359 606.659 480.53C602.967 489.063 595.393 499.658 594.821 509.128C594.649 511.978 594.482 516.023 595.517 518.619C575.587 515.679 555.52 513.753 535.395 512.848C533.247 512.022 487.438 509.405 481.353 509.093C478.193 508.762 473.415 508.473 470.545 507.66C463.129 507.389 448.255 503.995 440.927 502.13C404.397 492.832 365.69 477.716 338.431 450.772C315.687 428.289 300.105 395.879 300.186 363.645C300.26 334.174 312.952 304.845 333.675 284.039C367.316 250.264 417.606 237.75 463.792 234.775C478.894 233.803 495.241 234.133 510.46 234.222C570.196 233.959 630.804 235.746 690.276 230.971C729.214 226.878 767.776 220.519 802.729 201.944C809.706 198.237 815.913 193.118 822.577 189.759Z"/><defs><linearGradient id="gradient_2" gradientUnits="userSpaceOnUse" x1="539.55548" y1="473.35257" x2="602.06567" y2="497.00409"><stop offset="0" stop-color="#484848"/><stop offset="1" stop-color="#7C7B7B"/></linearGradient></defs><path fill="url(#gradient_2)" d="M493.017 440.164C513.163 442.628 533.565 446.563 553.764 449.133C570.553 451.269 587.452 454.082 604.107 457.046C606.492 457.471 615.786 459.118 617.438 459.834L616.694 460.26L615.569 460.222C611.677 467.048 609.762 473.359 606.659 480.53C602.967 489.063 595.393 499.658 594.821 509.128C594.649 511.978 594.482 516.023 595.517 518.619C575.587 515.679 555.52 513.753 535.395 512.848C533.247 512.022 487.438 509.405 481.353 509.093C478.193 508.762 473.415 508.473 470.545 507.66C471.84 506.317 482.698 508.468 485.078 508.35C491.757 508.018 522.951 512.535 527.997 510.722C529.92 506.185 531.296 494.048 533.121 490.494C537.357 482.248 547.469 472.064 549.933 462.491C551.313 457.13 555.21 453.64 555.134 450.476C553.029 449.534 537.729 447.588 534.334 447.108C520.661 445.272 507.013 443.258 493.392 441.067L493.017 440.164Z"/><defs><linearGradient id="gradient_3" gradientUnits="userSpaceOnUse" x1="649.18762" y1="266.87262" x2="691.24707" y2="230.48172"><stop offset="0" stop-color="#4B4B4B"/><stop offset="1" stop-color="#6A6969"/></linearGradient></defs><path fill="url(#gradient_3)" d="M510.46 234.222C570.196 233.959 630.804 235.746 690.276 230.971C695.83 240.711 701.139 243.286 708.945 250.635C710.827 252.407 714.418 258.625 716.521 260.688L720.102 260.285C714.767 263.823 702.989 267.903 696.593 270.51C666.359 282.833 634.526 291.926 602.459 298.026C598.974 298.688 587.831 301.638 585.109 300.821C586.804 299.875 596.618 298.837 599.463 298.36C620.691 294.803 641.248 287.432 661.763 282.305C661.625 280.804 660.776 279.251 659.897 278.037C657.064 274.123 652.698 271.009 649.385 267.464C645.404 263.203 641.903 258.351 638.173 253.86C634.81 249.81 630.418 245.443 627.717 240.94C627.103 239.916 626.754 238.784 626.449 237.639C626.283 237.02 625.904 235.761 625.366 235.324C623.272 233.622 514.81 236.882 510.46 234.222Z"/><defs><linearGradient id="gradient_4" gradientUnits="userSpaceOnUse" x1="701.31714" y1="249.58664" x2="808.88123" y2="183.42628"><stop offset="0" stop-color="#686767"/><stop offset="1" stop-color="#A0A09F"/></linearGradient></defs><path fill="url(#gradient_4)" d="M690.276 230.971C729.214 226.878 767.776 220.519 802.729 201.944C809.706 198.237 815.913 193.118 822.577 189.759C821.003 192.687 815.487 197.826 812.754 200.258C788.493 221.845 760.775 240.395 731.739 254.959C729.659 256.003 722.225 260.012 720.102 260.285L716.521 260.688C714.418 258.625 710.827 252.407 708.945 250.635C701.139 243.286 695.83 240.711 690.276 230.971Z"/><path fill="#969799" d="M605.302 305.259C608.795 304.624 619.499 302.453 622.497 302.655C618.768 303.596 609.763 306.047 606.281 306.323L605.302 305.259Z"/><path fill="#7D7C7C" d="M617.438 459.834C628.087 461.182 662.135 470.997 672.039 476.217C690.313 481.708 724.993 508 735.355 523.954C732.517 522.746 726.746 515.318 724.406 512.563C720.029 519.663 714.59 526.76 710.919 533.939C707.712 540.212 705.917 548.786 702.145 554.974C681.701 540.638 659.547 533.069 635.843 526.301C621.326 523.18 610.251 520.925 595.517 518.619C594.482 516.023 594.649 511.978 594.821 509.128C595.393 499.658 602.967 489.063 606.659 480.53C609.762 473.359 611.677 467.048 615.569 460.222L616.694 460.26L617.438 459.834Z"/><defs><linearGradient id="gradient_5" gradientUnits="userSpaceOnUse" x1="713.81799" y1="534.24365" x2="660.24719" y2="502.56302"><stop offset="0" stop-color="#3E3E3E"/><stop offset="1" stop-color="#727171"/></linearGradient></defs><path fill="url(#gradient_5)" d="M672.039 476.217C690.313 481.708 724.993 508 735.355 523.954C732.517 522.746 726.746 515.318 724.406 512.563C720.029 519.663 714.59 526.76 710.919 533.939C707.712 540.212 705.917 548.786 702.145 554.974C681.701 540.638 659.547 533.069 635.843 526.301C638.789 525.622 641.004 527.295 644.542 527.659C653.22 524.551 665.568 503.316 670.705 494.729C673.434 490.166 675.485 484.722 678.744 480.214C677.029 479.32 672.85 477.516 672.039 476.217Z"/><defs><linearGradient id="gradient_6" gradientUnits="userSpaceOnUse" x1="769.28064" y1="611.64703" x2="700.32025" y2="608.93555"><stop offset="0" stop-color="#0B0A0A"/><stop offset="1" stop-color="#3C3B3C"/></linearGradient></defs><path fill="url(#gradient_6)" d="M724.406 512.563C726.746 515.318 732.517 522.746 735.355 523.954C738.659 527.062 743.431 534.407 745.984 538.41C761.022 561.987 769.253 588.05 769.918 616.001C770.609 644.997 763.088 672.77 749.101 698.074C747.323 701.291 742.877 710.075 740.737 712.398C740.719 711.404 748.16 695.523 749.268 691.648C762.616 644.947 753.969 602.578 718.179 568.106C713.155 563.351 707.797 558.963 702.145 554.974C705.917 548.786 707.712 540.212 710.919 533.939C714.59 526.76 720.029 519.663 724.406 512.563Z"/></svg>